<?xml version="1.0" encoding="UTF-8" standalone="no"?>
<!-- Created with Inkscape (http://www.inkscape.org/) -->

<svg
   xmlns:dc="http://purl.org/dc/elements/1.1/"
   xmlns:cc="http://creativecommons.org/ns#"
   xmlns:rdf="http://www.w3.org/1999/02/22-rdf-syntax-ns#"
   xmlns:svg="http://www.w3.org/2000/svg"
   xmlns="http://www.w3.org/2000/svg"
   xmlns:sodipodi="http://sodipodi.sourceforge.net/DTD/sodipodi-0.dtd"
   xmlns:inkscape="http://www.inkscape.org/namespaces/inkscape"
   width="250"
   height="391.96848"
   id="svg15813"
   version="1.1"
   inkscape:version="0.48.4 r9939"
   inkscape:export-filename="/home/michal/Pulpit/creamcupcake.png"
   inkscape:export-xdpi="90"
   inkscape:export-ydpi="90"
   sodipodi:docname="Nowy dokument 16">
  <defs
     id="defs15815" />
  <sodipodi:namedview
     id="base"
     pagecolor="#ffffff"
     bordercolor="#666666"
     borderopacity="1.0"
     inkscape:pageopacity="0.0"
     inkscape:pageshadow="2"
     inkscape:zoom="1.4"
     inkscape:cx="370.29248"
     inkscape:cy="247.35199"
     inkscape:document-units="px"
     inkscape:current-layer="layer1"
     showgrid="false"
     fit-margin-top="0"
     fit-margin-left="0"
     fit-margin-right="0"
     fit-margin-bottom="0"
     inkscape:window-width="1855"
     inkscape:window-height="1056"
     inkscape:window-x="65"
     inkscape:window-y="24"
     inkscape:window-maximized="1" />
  <metadata
     id="metadata15818">
    <rdf:RDF>
      <cc:Work
         rdf:about="">
        <dc:format>image/svg+xml</dc:format>
        <dc:type
           rdf:resource="http://purl.org/dc/dcmitype/StillImage" />
        <dc:title></dc:title>
      </cc:Work>
    </rdf:RDF>
  </metadata>
  <g
     inkscape:label="Layer 1"
     inkscape:groupmode="layer"
     id="layer1"
     transform="translate(-103.57142,-422.09223)">
    <g
       id="g5396"
       transform="matrix(2.7739337,0,0,-2.7739337,230.35099,761.93849)">
      <path
         inkscape:connector-curvature="0"
         d="m 0,0 c 17.601,0 31.87,-4.207 31.87,-9.396 0,-5.188 -14.269,-9.394 -31.87,-9.394 -17.602,0 -31.87,4.206 -31.87,9.394 C -31.87,-4.207 -17.602,0 0,0"
         style="fill:#fcdbd6;fill-opacity:1;fill-rule:nonzero;stroke:none"
         id="path5398" />
    </g>
    <g
       id="g5400"
       transform="matrix(2.7739337,0,0,-2.7739337,129.40976,648.41301)">
      <path
         inkscape:connector-curvature="0"
         d="m 0,0 c 0,0 -0.992,6.498 -4.847,8.645 -2.024,1.125 -8.603,9.387 -0.604,14.393 46.143,28.883 80.321,2.13 80.321,2.13 0,0 5.781,-1.522 5.938,-9.411 0.106,-5.331 -3.971,-6.73 -6.152,-8.517 -2.183,-1.789 -4.654,-11.281 -4.654,-11.281 0,0 -60.198,-5.734 -70.583,4.344 L 0,0 z"
         style="fill:#714630;fill-opacity:1;fill-rule:nonzero;stroke:none"
         id="path5402" />
    </g>
    <g
       id="g5404"
       transform="matrix(2.7739337,0,0,-2.7739337,210.33067,473.39528)">
      <path
         inkscape:connector-curvature="0"
         d="M 0,0 C 0,0 6.464,3.065 16.74,0.419 27.018,-2.227 34.144,-12.81 30.332,-16.988 26.52,-21.166 0.166,-14.203 -0.33,-11.139 -0.829,-8.074 2.818,-6.682 5.635,-3.897 8.453,-1.112 0,0 0,0"
         style="fill:#fee1af;fill-opacity:1;fill-rule:nonzero;stroke:none"
         id="path5406" />
    </g>
    <g
       id="g5408"
       transform="matrix(2.7739337,0,0,-2.7739337,221.71212,488.38895)">
      <path
         inkscape:connector-curvature="0"
         d="m 0,0 c 0,0 3.057,1.155 10.695,-0.257 7.639,-1.412 14.209,-4.878 14.973,-3.466 1.527,-1.669 1.983,-4.75 1.067,-5.905 -4.888,1.155 -29.637,7.573 -29.637,7.573 L 0,0 z"
         style="fill:#feca89;fill-opacity:1;fill-rule:nonzero;stroke:none"
         id="path5410" />
    </g>
    <g
       id="g5412"
       transform="matrix(2.7739337,0,0,-2.7739337,250.7924,495.41062)">
      <path
         inkscape:connector-curvature="0"
         d="m 0,0 c 0,0 -14.75,3.479 -20.22,-0.837 -5.47,-4.316 -3.979,-7.241 -3.979,-7.241 0,0 -11.768,2.366 -10.111,-6.545 -5.967,0.277 -16.905,-2.089 -11.934,-10.306 -7.293,0.14 -9.778,-13.09 6.299,-16.711 16.077,-3.622 69.45,-4.457 75.582,3.621 2.816,5.988 -4.974,9.469 -4.974,9.469 0,0 4.144,7.8 -9.448,11.002 C 24.366,-15.18 24.698,-5.57 0,0"
         style="fill:#fee1af;fill-opacity:1;fill-rule:nonzero;stroke:none"
         id="path5414" />
    </g>
    <g
       id="g5416"
       transform="matrix(2.7739337,0,0,-2.7739337,123.43804,565.71513)">
      <path
         inkscape:connector-curvature="0"
         d="m 0,0 c 0,0 7.126,-0.419 23.37,-6.128 16.244,-5.71 35.966,-11.28 48.067,-10.306 -6.132,-0.974 -13.095,-1.532 -29.006,3.064 C 26.518,-8.774 2.32,0.139 0,0"
         style="fill:#feca89;fill-opacity:1;fill-rule:nonzero;stroke:none"
         id="path5418" />
    </g>
    <g
       id="g5420"
       transform="matrix(2.7739337,0,0,-2.7739337,157.91997,536.36413)">
      <path
         inkscape:connector-curvature="0"
         d="m 0,0 c 0,0 20.717,-6.403 34.641,-11.418 13.923,-5.014 29.005,-2.228 29.005,-2.228 0,0 -7.291,-5.014 -29.669,1.253 C 22.209,-8.354 -4.807,-0.416 0,0"
         style="fill:#feca89;fill-opacity:1;fill-rule:nonzero;stroke:none"
         id="path5422" />
    </g>
    <g
       id="g5424"
       transform="matrix(2.7739337,0,0,-2.7739337,183.6682,517.81872)">
      <path
         inkscape:connector-curvature="0"
         d="M 0,0 C 0,0 5.469,-0.834 17.568,-3.899 29.667,-6.962 40.773,-10.305 45.414,-9.468 42.763,-11 39.115,-11.558 27.679,-8.493 16.243,-5.43 6.629,-2.367 0,0"
         style="fill:#feca89;fill-opacity:1;fill-rule:nonzero;stroke:none"
         id="path5426" />
    </g>
    <g
       id="g5428"
       transform="matrix(2.7739337,0,0,-2.7739337,231.87888,470.94368)">
      <path
         inkscape:connector-curvature="0"
         d="M 0,0 C 0,0 12.527,0 18.487,-6.675 20.168,-8.6 14.667,-7.831 11.765,-5.647 8.863,-3.466 3.516,-0.898 0,0"
         style="fill:#ffecd4;fill-opacity:1;fill-rule:nonzero;stroke:none"
         id="path5430" />
    </g>
    <g
       id="g5432"
       transform="matrix(2.7739337,0,0,-2.7739337,239.51248,495.51075)">
      <path
         inkscape:connector-curvature="0"
         d="M 0,0 C 0,0 -13.291,2.438 -15.43,-2.824 -17.57,-8.087 4.124,-11.938 13.138,-11.04 22.153,-10.142 16.195,-2.44 0,0"
         style="fill:#ffecd4;fill-opacity:1;fill-rule:nonzero;stroke:none"
         id="path5434" />
    </g>
    <g
       id="g5436"
       transform="matrix(2.7739337,0,0,-2.7739337,179.33252,521.86312)">
      <path
         inkscape:connector-curvature="0"
         d="m 0,0 c 0,0 -3.971,1.027 -5.041,-1.411 -1.069,-2.439 15.43,-6.803 24.138,-9.884 8.708,-3.081 18.79,-7.188 22.916,-3.723 4.125,3.467 -4.888,3.467 -10.999,5.52 C 24.903,-7.443 2.597,0.129 0,0"
         style="fill:#ffecd4;fill-opacity:1;fill-rule:nonzero;stroke:none"
         id="path5438" />
    </g>
    <g
       id="g5440"
       transform="matrix(2.7739337,0,0,-2.7739337,153.48252,545.00272)">
      <path
         inkscape:connector-curvature="0"
         d="m 0,0 c 0,0 -5.195,2.055 -8.555,-1.67 -3.36,-3.723 13.442,-6.804 27.651,-11.553 14.21,-4.749 24.443,-6.674 27.348,-3.722 2.902,2.953 -10.542,4.877 -17.417,7.06 C 22.152,-7.701 0,0 0,0"
         style="fill:#ffecd4;fill-opacity:1;fill-rule:nonzero;stroke:none"
         id="path5442" />
    </g>
    <g
       id="g5444"
       transform="matrix(2.7739337,0,0,-2.7739337,124.66385,572.77727)">
      <path
         inkscape:connector-curvature="0"
         d="m 0,0 c 0,0 -3.972,0.642 -3.972,-3.594 0,-4.235 17.72,-9.755 30.86,-9.755 13.14,0 -2.139,5.263 -8.403,7.316 C 12.222,-3.979 1.679,0 0,0"
         style="fill:#ffecd4;fill-opacity:1;fill-rule:nonzero;stroke:none"
         id="path5446" />
    </g>
    <g
       id="g5448"
       transform="matrix(2.7739337,0,0,-2.7739337,120.48935,627.64098)">
      <path
         inkscape:connector-curvature="0"
         d="m 0,0 c 0,0 13.901,-53.256 14.791,-55.631 0.893,-2.377 27.434,-13.206 49.693,0 4.811,27.469 14.376,58.35 14.376,58.35 l -7.872,-6.985 -4.808,2.643 -3.74,-6.605 -4.986,3.962 -4.63,-6.074 -5.698,6.074 -5.523,-6.602 -5.164,5.81 -4.63,-5.546 -4.986,5.546 -4.985,-3.434 -4.986,5.547 L 12.757,-6.908 8.303,-0.037 5.454,-4.267 0,0 z"
         style="fill:#f27379;fill-opacity:1;fill-rule:nonzero;stroke:none"
         id="path5450" />
    </g>
    <g
       id="g5452"
       transform="matrix(2.7739337,0,0,-2.7739337,135.61865,639.47347)">
      <path
         inkscape:connector-curvature="0"
         d="M 0,0 9.996,-52.129 11.974,-53.164 2.849,4.229 0.243,-0.109 0,0 z"
         style="fill:#f8a898;fill-opacity:1;fill-rule:nonzero;stroke:none"
         id="path5454" />
    </g>
    <g
       id="g5456"
       transform="matrix(2.7739337,0,0,-2.7739337,267.82074,655.04995)">
      <path
         inkscape:connector-curvature="0"
         d="m 0,0 -7.297,-51.844 3.543,0.536 L 4.341,5.615 0.449,0.297 0,0 z"
         style="fill:#f8a898;fill-opacity:1;fill-rule:nonzero;stroke:none"
         id="path5458" />
    </g>
    <g
       id="g5460"
       transform="matrix(2.7739337,0,0,-2.7739337,293.69626,650.46379)">
      <path
         inkscape:connector-curvature="0"
         d="m 0,0 -7.624,-51.767 3.4,1.298 L 3.811,6.235 0.063,0.072 0,0 z"
         style="fill:#f8a898;fill-opacity:1;fill-rule:nonzero;stroke:none"
         id="path5462" />
    </g>
    <g
       id="g5464"
       transform="matrix(2.7739337,0,0,-2.7739337,235.8148,657.76978)">
      <path
         inkscape:connector-curvature="0"
         d="M 0,0 -6.307,-50.94 -3.134,-51.055 5.552,6.596 0,0 z"
         style="fill:#f8a898;fill-opacity:1;fill-rule:nonzero;stroke:none"
         id="path5466" />
    </g>
    <g
       id="g5468"
       transform="matrix(2.7739337,0,0,-2.7739337,156.48946,651.03522)">
      <path
         inkscape:connector-curvature="0"
         d="M 0,0 6.148,-49.856 8.035,-50.491 3.708,5.176 -0.221,1.525 0,0 z"
         style="fill:#f8a898;fill-opacity:1;fill-rule:nonzero;stroke:none"
         id="path5470" />
    </g>
    <g
       id="g5472"
       transform="matrix(2.7739337,0,0,-2.7739337,182.2066,650.71567)">
      <path
         inkscape:connector-curvature="0"
         d="M 0,0 0.741,-51.185 2.719,-51.72 C 3.275,-17.427 4.615,3.029 4.615,3.029 L 0,0 z"
         style="fill:#f8a898;fill-opacity:1;fill-rule:nonzero;stroke:none"
         id="path5474" />
    </g>
    <g
       id="g5476"
       transform="matrix(2.7739337,0,0,-2.7739337,209.3487,656.50458)">
      <path
         inkscape:connector-curvature="0"
         d="M 0,0 -4.47,-50.361 -2.122,-50.783 4.388,5.192 0,0 z"
         style="fill:#f8a898;fill-opacity:1;fill-rule:nonzero;stroke:none"
         id="path5478" />
    </g>
    <g
       id="g5480"
       transform="matrix(2.7739337,0,0,-2.7739337,318.32575,638.59051)">
      <path
         inkscape:connector-curvature="0"
         d="m 0,0 -9.518,-53.176 2.682,1.493 L 6.798,5.924 0,0 z"
         style="fill:#f8a898;fill-opacity:1;fill-rule:nonzero;stroke:none"
         id="path5482" />
    </g>
    <g
       id="g5628"
       transform="matrix(2.7739337,0,0,-2.7739337,255.70364,462.49457)">
      <path
         inkscape:connector-curvature="0"
         d="m 0,0 c 0,0 -1.929,13.28 -8.569,14.565 0,0 -0.855,-0.213 0.429,-0.643 1.286,-0.428 5.998,-3.213 7.818,-14.351 0,0.001 0.215,-0.963 0.322,0.429"
         style="fill:#69352d;fill-opacity:1;fill-rule:nonzero;stroke:none"
         id="path5630" />
    </g>
    <g
       id="g5632"
       transform="matrix(2.7739337,0,0,-2.7739337,234.75016,477.25549)">
      <path
         inkscape:connector-curvature="0"
         d="m 0,0 c 0,0 -0.025,-1.617 4.917,-2.882 4.939,-1.261 8.389,0.727 8.935,1.698 0.545,0.973 -0.478,7.257 -6.021,7.701 C 2.287,6.962 -0.146,2.075 0,0"
         style="fill:#ef4068;fill-opacity:1;fill-rule:nonzero;stroke:none"
         id="path5634" />
    </g>
    <g
       id="g5636"
       transform="matrix(2.7739337,0,0,-2.7739337,256.64234,459.89925)">
      <path
         inkscape:connector-curvature="0"
         d="m 0,0 c -0.67,0.07 -1.344,0.016 -1.978,-0.197 0,0 -2.564,-0.452 -2.922,-3.399 -0.32,-2.657 2.616,-4.068 5.072,-4.33 0.265,-0.027 0.524,-0.043 0.774,-0.045 2.557,-0.017 4.361,1.709 3.895,4.147 -0.166,0.874 -0.73,1.706 -1.514,2.373 -0.1,-0.1 -0.201,-0.201 -0.302,-0.303 0.228,-0.326 0.342,-0.714 0.299,-1.117 -0.106,-0.992 -1.116,-1.693 -2.258,-1.57 -1.14,0.121 -1.982,1.019 -1.876,2.011 0.104,0.989 1.117,1.691 2.257,1.57 0.484,-0.053 0.915,-0.244 1.242,-0.523 0.075,0.08 0.153,0.162 0.233,0.249 C 2.078,-0.531 1.046,-0.112 0,0"
         style="fill:#f27382;fill-opacity:1;fill-rule:nonzero;stroke:none"
         id="path5638" />
    </g>
    <g
       id="g5640"
       transform="matrix(2.7739337,0,0,-2.7739337,264.75026,463.04989)">
      <path
         inkscape:connector-curvature="0"
         d="m 0,0 c -0.081,-0.087 -0.158,-0.169 -0.233,-0.249 0.128,-0.111 0.243,-0.234 0.336,-0.37 0.101,0.101 0.202,0.203 0.302,0.303 C 0.275,-0.207 0.141,-0.101 0,0"
         style="fill:#de776f;fill-opacity:1;fill-rule:nonzero;stroke:none"
         id="path5642" />
    </g>
    <g
       id="g5644"
       transform="matrix(2.7739337,0,0,-2.7739337,260.65844,462.28845)">
      <path
         inkscape:connector-curvature="0"
         d="m 0,0 c -1.14,0.121 -2.153,-0.581 -2.257,-1.568 -0.106,-0.994 0.736,-1.892 1.876,-2.013 1.143,-0.123 2.152,0.578 2.258,1.57 0.042,0.404 -0.072,0.791 -0.299,1.117 -0.472,-0.477 -0.939,-0.969 -1.4,-1.473 l -0.252,0.395 c 0,0 0.489,0.567 1.316,1.449 C 0.915,-0.243 0.484,-0.053 0,0"
         style="fill:#f5939e;fill-opacity:1;fill-rule:nonzero;stroke:none"
         id="path5646" />
    </g>
    <g
       id="g5648"
       transform="matrix(2.7739337,0,0,-2.7739337,264.10422,463.74062)">
      <path
         inkscape:connector-curvature="0"
         d="m 0,0 c -0.827,-0.882 -1.316,-1.448 -1.316,-1.448 l 0.252,-0.396 c 0.46,0.504 0.928,0.996 1.4,1.474 C 0.243,-0.234 0.128,-0.111 0,0"
         style="fill:#f59699;fill-opacity:1;fill-rule:nonzero;stroke:none"
         id="path5650" />
    </g>
  </g>
</svg>
